<svg width="22" height="27" viewBox="0 0 22 27" fill="none" xmlns="http://www.w3.org/2000/svg">
<path d="M0 26.025L4.37612 19.8467H9.90133C14.2296 19.8467 16.9587 17.3184 16.9587 13.2502C16.9587 9.125 14.2296 6.59665 9.90133 6.59665H0V26.025Z" fill="url(#paint0_linear_2926_30572)"/>
<path d="M21.3259 19.4284L16.9497 13.2501H11.4245C7.09628 13.2501 4.36719 10.7217 4.36719 6.65356C4.36719 2.52835 7.09628 0 11.4245 0H21.3259V19.4284Z" fill="url(#paint1_linear_2926_30572)"/>
<path d="M9.8924 6.59628H4.36719C4.36719 6.61529 4.36719 6.6343 4.36719 6.65331C4.36719 10.712 7.09628 13.2498 11.4245 13.2498H16.9497C16.9497 9.12464 14.2206 6.59628 9.8924 6.59628Z" fill="url(#paint2_linear_2926_30572)"/>
<defs>
<linearGradient id="paint0_linear_2926_30572" x1="1.33997e-07" y1="26.025" x2="21.373" y2="16.1804" gradientUnits="userSpaceOnUse">
<stop stop-color="#36F0EA"/>
<stop offset="0.732944" stop-color="#8474EA"/>
</linearGradient>
<linearGradient id="paint1_linear_2926_30572" x1="4.89228" y1="13.153" x2="21.2298" y2="-0.118283" gradientUnits="userSpaceOnUse">
<stop stop-color="#FFC200"/>
<stop offset="0.644395" stop-color="#FF3E7A"/>
</linearGradient>
<linearGradient id="paint2_linear_2926_30572" x1="4.36719" y1="13.2498" x2="16.9084" y2="6.51918" gradientUnits="userSpaceOnUse">
<stop stop-color="#FFE593"/>
<stop offset="1" stop-color="#FFC200"/>
</linearGradient>
</defs>
</svg>